<?xml version="1.0" encoding="utf-8"?>
<!-- Generator: Adobe Illustrator 17.0.0, SVG Export Plug-In . SVG Version: 6.00 Build 0)  -->
<!DOCTYPE svg PUBLIC "-//W3C//DTD SVG 1.1//EN" "http://www.w3.org/Graphics/SVG/1.1/DTD/svg11.dtd">
<svg version="1.1" id="Camada_1" xmlns="http://www.w3.org/2000/svg" xmlns:xlink="http://www.w3.org/1999/xlink" x="0px" y="0px"
	 width="250px" height="80px" viewBox="0 0 250 80" enable-background="new 0 0 250 80" xml:space="preserve">
<g>
	<path fill="#EEB90B" d="M77.2,40.343c0.022,20.435-16.534,37.123-36.868,37.163C19.754,77.546,3.015,60.981,2.915,40.477
		C2.816,20.129,19.758,3.239,40.195,3.311C60.656,3.383,77.178,19.917,77.2,40.343z M29.007,46.711
		c-2.988-0.108-5.195,1.092-6.351,3.934c-1.091,2.683-0.127,4.979,1.875,6.668c1.977,1.667,4.481,1.799,6.67,0.421
		c2.502-1.575,3.446-3.982,2.671-6.967c-0.612-2.357,1.344-4.258,3.729-3.69c6.428,1.532,11.047-3.012,9.413-9.259
		c-0.658-2.514,1.019-4.222,3.535-3.601c3.03,0.749,5.734-0.275,7.248-2.817c1.516-2.546,1.213-5.072-0.707-7.176
		c-1.918-2.103-4.418-2.611-7.108-1.437c-2.891,1.262-3.794,3.66-3.541,6.592c0.233,2.71-1.53,4.48-4.099,3.816
		c-1.699-0.439-3.284-0.168-4.902,0.218c-2.538,0.604-4.35-1.016-3.991-3.573c0.574-4.091-1.979-7.523-5.712-7.68
		c-3.243-0.136-6.434,3.13-6.259,6.405c0.2,3.753,3.291,6.075,7.44,5.589c2.888-0.339,4.703,1.546,4.046,4.337
		c-0.298,1.265-0.276,2.428,0.08,3.664C33.808,44.815,31.938,46.911,29.007,46.711z M48.482,60.774
		c5.794,0.045,9.82-2.915,12.042-8.76c0.419-1.102,1.276-2.478-0.338-3.24c-1.574-0.744-2.133,0.681-2.73,1.753
		c-3.716,6.675-5.281,7.467-12.892,6.3c-1.023-0.157-1.936-0.293-2.283,0.858c-0.387,1.283,0.534,1.962,1.561,2.265
		C45.416,60.416,46.998,60.992,48.482,60.774z M36.896,10.673c-3.599-0.244-6.762,2.134-7.603,5.29
		c-0.249,0.935-0.148,1.683,0.661,2.164c1.025,0.609,1.879,0.105,2.328-0.811c1.243-2.537,2.891-3.988,5.927-2.906
		c0.92,0.328,1.566-0.334,1.838-1.238c0.255-0.848-0.209-1.487-0.871-1.8C38.35,10.982,37.412,10.823,36.896,10.673z M38.066,70.682
		c0.32-0.025,1.306-0.08,1.442-1.316c0.131-1.191-0.736-1.644-1.682-1.835c-2.543-0.514-4.074-1.81-3.991-4.608
		c0.031-1.043-0.607-1.892-1.64-1.861c-1.242,0.038-1.575,1.093-1.697,2.209C30.074,67.164,33.443,70.788,38.066,70.682z
		 M63.398,30.927c-1.4-0.116-2.937-0.613-3.162,1.183c-0.234,1.865,1.514,1.995,2.746,2.289c3.106,0.741,6.258-1.149,7.576-4.46
		c0.409-1.028,1.079-2.242-0.357-2.974c-1.42-0.724-2.153,0.412-2.576,1.452C66.784,30.489,65.297,31.182,63.398,30.927z
		 M13.32,41.581c0.277,2.502,1.744,4.282,3.82,5.642c0.766,0.502,1.538,0.583,2.219-0.19c0.789-0.896,0.567-1.876-0.225-2.44
		c-2.356-1.681-2.742-3.703-1.478-6.198c0.484-0.955,0.393-1.852-0.655-2.348c-0.921-0.436-1.618,0.156-2.13,0.82
		C13.825,38.22,13.487,39.839,13.32,41.581z M54.169,15.829c-1.941-0.213-3.549,0.685-4.986,1.929
		c-0.706,0.611-1.37,1.377-0.61,2.389c0.705,0.939,1.685,0.899,2.457,0.251c2.26-1.897,4.31-1.472,6.354,0.313
		c0.788,0.688,1.702,0.95,2.387-0.047c0.581-0.846,0.449-1.819-0.318-2.54C57.995,16.751,56.377,15.677,54.169,15.829z"/>
	<g>
		<g>
			<path fill="#FFFFFF" d="M180.599,62.775c-1.556,0.428-3.229,0.738-5.017,0.933c-1.789,0.195-3.5,0.292-5.134,0.292
				c-2.683,0-5.095-0.331-7.233-0.991c-2.139-0.661-3.958-1.769-5.454-3.325c-1.498-1.555-2.635-3.617-3.412-6.183
				c-0.779-2.567-1.167-5.755-1.167-9.566c0-3.811,0.388-7.001,1.167-9.567c0.777-2.567,1.915-4.617,3.412-6.154
				c1.497-1.536,3.334-2.625,5.512-3.267c2.178-0.642,4.647-0.962,7.408-0.962c1.672,0,3.363,0.097,5.075,0.291
				c1.711,0.195,3.266,0.429,4.667,0.7l-0.7,4.667c-1.362-0.311-2.887-0.563-4.579-0.758c-1.692-0.195-3.277-0.292-4.754-0.292
				c-1.828,0-3.412,0.244-4.754,0.729c-1.341,0.487-2.46,1.313-3.354,2.479c-0.895,1.167-1.566,2.733-2.013,4.696
				c-0.447,1.965-0.671,4.424-0.671,7.38c0,3.072,0.233,5.61,0.7,7.612c0.467,2.003,1.157,3.588,2.071,4.754
				c0.913,1.167,2.061,1.984,3.442,2.45c1.38,0.467,2.984,0.699,4.813,0.699c1.478,0,3.062-0.125,4.754-0.379
				c1.692-0.252,3.276-0.534,4.754-0.846L180.599,62.775z"/>
			<path fill="#9D9D9C" d="M211.225,62.249c-1.75,0.429-3.753,0.817-6.008,1.167c-2.257,0.35-4.317,0.525-6.184,0.525
				c-1.866,0-3.598-0.224-5.192-0.671c-1.595-0.446-2.995-1.244-4.2-2.391c-1.206-1.147-2.149-2.673-2.829-4.58
				c-0.681-1.905-1.021-4.317-1.021-7.233c0-2.722,0.34-4.997,1.021-6.826c0.68-1.827,1.604-3.305,2.771-4.433
				c1.167-1.127,2.538-1.934,4.113-2.421c1.575-0.486,3.276-0.729,5.104-0.729c1.128,0,2.207,0.078,3.238,0.233
				c1.03,0.156,2.109,0.35,3.238,0.583v-14.7h5.951V62.249z M205.333,40.024c-1.05-0.271-2.1-0.486-3.15-0.642
				c-1.05-0.155-2.1-0.233-3.151-0.233c-0.972,0-1.896,0.146-2.771,0.438c-0.875,0.291-1.633,0.817-2.275,1.575
				c-0.642,0.759-1.147,1.771-1.516,3.033c-0.37,1.264-0.554,2.888-0.554,4.871c0,2.1,0.165,3.821,0.496,5.163
				c0.33,1.341,0.807,2.412,1.429,3.208c0.621,0.798,1.38,1.341,2.275,1.633c0.894,0.292,1.905,0.438,3.033,0.438
				c1.01,0,2.041-0.067,3.091-0.204c1.051-0.136,2.08-0.301,3.092-0.496V40.024z"/>
			<path fill="#9D9D9C" d="M226.683,35.532c1.088-0.233,2.217-0.438,3.383-0.612c1.167-0.176,2.313-0.263,3.442-0.263
				c1.788,0,3.461,0.243,5.017,0.729c1.555,0.487,2.906,1.294,4.054,2.421c1.146,1.128,2.041,2.606,2.684,4.433
				c0.641,1.828,0.962,4.104,0.962,6.826c0,2.916-0.35,5.328-1.051,7.233c-0.699,1.906-1.643,3.432-2.829,4.58
				c-1.187,1.147-2.586,1.945-4.2,2.391c-1.615,0.447-3.336,0.671-5.163,0.671c-0.934,0-1.935-0.049-3.004-0.146
				c-1.071-0.097-2.139-0.224-3.208-0.379c-1.07-0.155-2.12-0.33-3.151-0.525c-1.031-0.194-1.974-0.408-2.829-0.642V20.774h5.892
				V35.532z M226.683,58.807c1.011,0.195,2.041,0.36,3.092,0.496c1.05,0.137,2.079,0.204,3.091,0.204
				c1.127,0,2.139-0.146,3.033-0.438c0.894-0.292,1.653-0.836,2.275-1.633c0.622-0.797,1.099-1.867,1.43-3.208
				c0.33-1.342,0.495-3.063,0.495-5.163c0-1.984-0.165-3.607-0.495-4.871c-0.331-1.263-0.808-2.275-1.43-3.033
				c-0.622-0.758-1.351-1.283-2.187-1.575c-0.837-0.292-1.76-0.438-2.771-0.438c-1.051,0-2.139,0.087-3.267,0.263
				c-1.128,0.175-2.217,0.379-3.267,0.612V58.807z"/>
		</g>
		<path fill="#FFFFFF" d="M102.704,40.241c0-6.471,0.145-12.947-0.066-19.412c-0.093-2.86,0.781-3.683,3.607-3.63
			c2.601,0.049,3.794,0.38,3.738,3.461c-0.196,10.917,0.01,21.84-0.117,32.759c-0.03,2.537,0.501,3.437,3.253,3.379
			c8.894-0.185,17.797,0.051,26.691-0.116c2.675-0.05,3.135,0.98,3.095,3.299c-0.037,2.149-0.106,3.446-2.942,3.406
			c-11.457-0.159-22.919-0.112-34.377-0.001c-2.27,0.022-3.008-0.594-2.956-2.923c0.149-6.738,0.053-13.481,0.053-20.221
			C102.69,40.241,102.697,40.241,102.704,40.241z"/>
		<path fill="#FFFFFF" d="M122.017,31.159c0-3.501,0.204-7.017-0.063-10.497c-0.225-2.934,0.544-3.789,3.652-3.843
			c3.428-0.059,3.593,1.431,3.518,4.059c-0.143,4.977,0.082,9.965-0.059,14.942c-0.066,2.329,0.749,3.064,3.007,2.89
			c2.275-0.175,4.628,0.29,6.852-0.086c4.223-0.714,4.198,1.717,4.044,4.664c-0.086,1.646-0.841,2.005-2.29,1.994
			c-5.52-0.045-11.042-0.094-16.56,0.025c-1.954,0.042-2.163-0.874-2.137-2.436c0.065-3.903,0.022-7.809,0.022-11.713
			C122.007,31.159,122.012,31.159,122.017,31.159z"/>
	</g>
</g>
</svg>
